<svg xmlns="http://www.w3.org/2000/svg" xmlns:xlink="http://www.w3.org/1999/xlink" version="1.1" x="0px" y="0px" viewBox="0 0 100 125" enable-background="new 0 0 100 100" xml:space="preserve"><path d="M64.8,41L39.4,8.3c-0.2-0.2-0.5-0.4-0.8-0.4H28.2c-0.4,0-0.7,0.4-0.6,0.8L39,41.6L18.9,42l-10-12.4  c-0.2-0.2-0.5-0.4-0.8-0.4H1.4c-0.4,0-0.7,0.4-0.6,0.9l7.8,19.6c0.1,0.3,0.1,0.5,0,0.8L0.8,69.9c-0.2,0.4,0.1,0.9,0.6,0.9h6.7  c0.3,0,0.6-0.1,0.8-0.4l9.9-12.3l20.1,0.4L27.6,91.3c-0.1,0.4,0.2,0.8,0.6,0.8h10.4c0.3,0,0.6-0.1,0.8-0.4l25.4-32.7L89,59.5  c5.2,0.1,10-3.8,10.2-9c0.3-5.5-4.2-10.1-9.7-10L64.8,41z"/></svg>