<svg xmlns="http://www.w3.org/2000/svg" xmlns:xlink="http://www.w3.org/1999/xlink" version="1.1" x="0px" y="0px" viewBox="0 0 73 75" enable-background="new 0 0 73 73" xml:space="preserve"><g><path d="M62.1,69.1l-9-9.8h2c3.3,0,6-2.7,6-6V22.3c0-3.1-2.3-5.6-5.3-6V6.2c0-0.8-0.5-1.5-1.2-1.8c-12-5.1-24.2-5.1-36.2,0   c-0.7,0.3-1.2,1-1.2,1.8v10.1c-3,0.3-5.3,2.9-5.3,6v31.1c0,3.3,2.7,6,6,6h2l-9,9.8C10.1,70,10.2,71.2,11,72   c0.8,0.7,2.1,0.7,2.8-0.1l4-4.4h37.3l4,4.4c0.8,0.9,2,0.8,2.8,0.1C62.8,71.2,62.9,70,62.1,69.1z M38.5,4.5c4.4,0.2,8.9,1.2,13.3,3   v8.7H38.5V4.5z M21.2,7.5c4.4-1.7,8.9-2.7,13.3-3v11.7H21.2V7.5z M17.9,55.3c-1.1,0-2-0.9-2-2V22.3c0-1.1,0.9-2,2-2h37.3   c1.1,0,2,0.9,2,2v31.1c0,1.1-0.9,2-2,2H17.9z M21.5,63.4l3.7-4.1h22.5l3.7,4.1H21.5z"/><path d="M36.5,25.4c-4,0-7.3,3.3-7.3,7.3c0,4,3.3,7.3,7.3,7.3c4,0,7.3-3.3,7.3-7.3C43.8,28.7,40.5,25.4,36.5,25.4z M36.5,36   c-1.8,0-3.3-1.5-3.3-3.3c0-1.8,1.5-3.3,3.3-3.3c1.8,0,3.3,1.5,3.3,3.3C39.8,34.5,38.3,36,36.5,36z"/><path d="M24.8,46.3h-1.3c-1.1,0-2,0.9-2,2c0,1.1,0.9,2,2,2h1.3c1.1,0,2-0.9,2-2C26.8,47.2,25.9,46.3,24.8,46.3z"/><path d="M49.5,46.3h-1.3c-1.1,0-2,0.9-2,2c0,1.1,0.9,2,2,2h1.3c1.1,0,2-0.9,2-2C51.5,47.2,50.6,46.3,49.5,46.3z"/></g></svg>