<?xml version="1.0" encoding="UTF-8" standalone="no"?>
<!DOCTYPE svg PUBLIC "-//W3C//DTD SVG 20010904//EN"
              "http://www.w3.org/TR/2001/REC-SVG-20010904/DTD/svg10.dtd">

<svg xmlns="http://www.w3.org/2000/svg"
     width="1.03in" height="0.683333in"
     viewBox="0 0 309 205">
  <path id="Selection"
        fill="none" stroke="black" stroke-width="1"
        d="M 249.00,0.00
           C 250.86,0.00 254.13,-0.12 255.79,0.60
             257.83,1.49 258.72,3.16 259.97,5.02
             265.21,15.02 260.72,16.93 259.97,27.00
             259.97,31.67 263.40,44.98 266.07,48.79
             269.34,53.43 275.74,53.43 279.62,56.70
             283.27,59.77 285.71,66.96 287.81,69.82
             287.81,69.82 293.15,75.32 293.15,75.32
             294.97,77.82 294.61,79.70 297.30,82.22
             301.41,86.06 309.40,88.68 308.61,100.00
             308.17,106.32 300.78,123.28 296.61,127.79
             294.77,129.78 292.49,131.06 290.00,132.07
             285.06,134.08 270.39,135.74 267.56,138.56
             266.36,139.75 265.83,141.41 265.41,143.00
             262.86,152.73 270.40,152.34 269.70,161.00
             269.04,169.11 267.16,169.21 264.97,174.00
             263.46,177.31 264.37,178.43 261.69,182.00
             258.55,186.16 251.27,191.47 249.60,196.00
             248.84,198.07 249.00,201.73 249.00,204.00
             237.97,198.79 238.96,191.03 225.00,191.00
             225.00,191.00 114.00,191.00 114.00,191.00
             114.00,191.00 99.00,192.00 99.00,192.00
             99.00,192.00 39.00,192.00 39.00,192.00
             39.00,192.00 36.34,179.00 36.34,179.00
             36.30,174.69 38.35,169.54 37.82,164.00
             37.82,164.00 34.00,146.00 34.00,146.00
             33.25,142.49 31.45,133.00 28.57,131.02
             27.35,130.18 26.34,130.23 25.00,130.00
             25.00,130.00 24.01,109.00 24.01,109.00
             24.01,109.00 13.30,90.00 13.30,90.00
             13.30,90.00 7.49,62.01 7.49,62.01
             7.49,62.01 1.64,53.91 1.64,53.91
             1.64,53.91 2.58,46.00 2.58,46.00
             2.58,46.00 7.38,28.00 7.38,28.00
             7.38,28.00 2.70,16.00 2.70,16.00
             2.70,16.00 2.00,0.00 2.00,0.00
             2.00,0.00 249.00,0.00 249.00,0.00 Z" />
</svg>
