<?xml version="1.0" encoding="UTF-8" standalone="no"?>
<!DOCTYPE svg PUBLIC "-//W3C//DTD SVG 20010904//EN"
              "http://www.w3.org/TR/2001/REC-SVG-20010904/DTD/svg10.dtd">

<svg xmlns="http://www.w3.org/2000/svg"
     width="0.64in" height="1.17667in"
     viewBox="0 0 192 353">
  <path id="Selection"
        fill="none" stroke="black" stroke-width="1"
        d="M 178.00,1.00
           C 178.00,6.62 177.42,15.93 179.10,21.00
             183.41,34.02 191.98,44.89 192.00,59.00
             192.00,59.00 192.00,150.00 192.00,150.00
             192.00,150.00 192.00,195.00 192.00,195.00
             191.98,205.99 188.51,210.89 185.00,221.00
             186.80,221.66 187.83,221.80 189.15,223.42
             191.99,226.93 192.86,238.92 191.00,243.00
             191.00,243.00 187.55,249.00 187.55,249.00
             186.57,251.46 186.91,253.21 184.79,257.00
             182.13,261.76 178.56,264.63 176.05,270.00
             176.05,270.00 168.52,290.00 168.52,290.00
             168.52,290.00 166.64,302.00 166.64,302.00
             164.12,313.24 162.71,305.76 163.00,321.00
             158.82,322.19 149.30,325.94 147.60,330.10
             145.74,334.66 149.18,341.47 143.85,344.54
             138.08,347.88 124.55,339.77 118.00,338.00
             118.00,338.00 115.00,352.00 115.00,352.00
             115.00,352.00 108.00,346.59 108.00,346.59
             103.95,344.00 102.05,345.65 99.35,339.98
             97.89,336.91 96.16,330.38 96.39,327.00
             96.39,327.00 97.37,321.00 97.37,321.00
             97.57,318.37 96.43,309.48 94.99,307.42
             93.23,304.88 90.27,304.94 87.17,302.49
             87.17,302.49 78.00,293.31 78.00,293.31
             75.06,291.04 73.42,291.08 71.01,289.42
             67.84,287.22 58.70,276.63 57.56,273.00
             54.13,262.04 69.10,249.31 63.98,240.28
             62.44,237.57 57.25,232.88 54.00,232.81
             51.25,233.00 47.92,236.14 44.31,232.81
             41.53,229.99 42.25,226.42 41.68,223.00
             41.15,219.90 39.07,213.57 37.30,211.04
             34.66,207.27 27.90,203.31 24.00,199.83
             16.12,192.79 6.94,180.25 3.91,170.00
             2.94,166.71 0.91,159.19 1.25,156.00
             1.25,156.00 4.58,142.00 4.58,142.00
             5.04,138.74 5.57,130.70 7.02,128.17
             9.01,124.70 14.82,122.01 17.44,118.70
             19.27,116.39 19.86,112.84 21.17,110.00
             25.92,99.72 31.64,92.84 20.00,84.00
             20.52,80.68 22.14,74.09 24.70,71.82
             26.73,70.02 30.39,70.07 33.00,69.49
             33.00,69.49 50.82,63.72 50.82,63.72
             55.60,60.82 63.31,43.71 64.38,38.00
             67.12,23.48 59.40,22.46 54.31,16.71
             52.05,14.16 52.09,12.35 50.42,10.39
             46.78,6.09 44.63,8.56 44.00,1.00
             44.00,1.00 178.00,1.00 178.00,1.00 Z" />
</svg>
