<?xml version="1.0" encoding="UTF-8" standalone="no"?>
<!DOCTYPE svg PUBLIC "-//W3C//DTD SVG 20010904//EN"
              "http://www.w3.org/TR/2001/REC-SVG-20010904/DTD/svg10.dtd">

<svg xmlns="http://www.w3.org/2000/svg"
     width="1.39in" height="0.653333in"
     viewBox="0 0 417 196">
  <path id="Selection"
        fill="none" stroke="black" stroke-width="1"
        d="M 254.00,0.14
           C 256.11,0.00 258.98,-0.08 261.00,0.14
             268.43,2.23 275.65,10.55 288.00,12.13
             288.00,12.13 299.00,11.00 299.00,11.00
             299.00,11.00 318.00,11.00 318.00,11.00
             328.16,11.05 328.48,14.21 337.00,18.96
             337.00,18.96 346.82,23.81 346.82,23.81
             354.62,29.52 350.22,33.87 363.00,33.00
             363.00,33.00 369.70,58.00 369.70,58.00
             371.66,62.76 375.33,64.64 378.30,73.00
             380.53,79.25 379.89,81.70 380.00,88.00
             380.16,96.43 382.56,93.76 385.37,100.05
             387.02,103.73 388.59,110.84 389.63,115.00
             389.63,115.00 391.83,125.00 391.83,125.00
             393.22,138.04 390.63,149.93 395.87,163.00
             397.59,167.27 406.25,176.79 409.55,181.00
             413.49,186.04 414.56,189.26 417.00,195.00
             417.00,195.00 95.00,195.00 95.00,195.00
             95.00,195.00 95.00,131.00 95.00,131.00
             95.00,131.00 1.00,131.00 1.00,131.00
             1.00,131.00 1.00,75.00 1.00,75.00
             1.00,75.00 0.00,58.00 0.00,58.00
             0.00,58.00 0.00,0.14 0.00,0.14
             0.00,0.14 254.00,0.14 254.00,0.14 Z" />
</svg>
