<?xml version="1.0" encoding="UTF-8" standalone="no"?>
<!DOCTYPE svg PUBLIC "-//W3C//DTD SVG 20010904//EN"
              "http://www.w3.org/TR/2001/REC-SVG-20010904/DTD/svg10.dtd">

<svg xmlns="http://www.w3.org/2000/svg"
     width="0.8in" height="1.06333in"
     viewBox="0 0 240 319">
  <path id="Selection"
        fill="none" stroke="black" stroke-width="1"
        d="M 143.00,1.00
           C 143.00,1.00 143.00,65.00 143.00,65.00
             143.00,65.00 198.00,65.00 198.00,65.00
             198.00,65.00 214.00,66.00 214.00,66.00
             214.00,66.00 240.00,66.00 240.00,66.00
             240.00,66.00 240.00,317.00 240.00,317.00
             240.00,317.00 153.00,317.00 153.00,317.00
             153.00,317.00 138.00,318.00 138.00,318.00
             138.00,318.00 58.00,318.00 58.00,318.00
             58.00,318.00 43.00,319.00 43.00,319.00
             43.00,319.00 1.00,319.00 1.00,319.00
             1.00,319.00 1.00,169.00 1.00,169.00
             1.00,169.00 0.00,154.00 0.00,154.00
             0.00,154.00 0.00,1.00 0.00,1.00
             0.00,1.00 143.00,1.00 143.00,1.00 Z" />
</svg>
