<?xml version="1.0" encoding="UTF-8" standalone="no"?>
<!DOCTYPE svg PUBLIC "-//W3C//DTD SVG 20010904//EN"
              "http://www.w3.org/TR/2001/REC-SVG-20010904/DTD/svg10.dtd">

<svg xmlns="http://www.w3.org/2000/svg"
     width="1.12in" height="0.903333in"
     viewBox="0 0 336 271">
  <path id="Selection"
        fill="none" stroke="black" stroke-width="1"
        d="M 335.00,0.00
           C 335.00,0.00 335.00,128.00 335.00,128.00
             335.00,128.00 336.00,143.00 336.00,143.00
             336.00,143.00 336.00,271.00 336.00,271.00
             336.00,271.00 242.00,271.00 242.00,271.00
             242.00,271.00 227.00,270.00 227.00,270.00
             227.00,270.00 79.00,270.00 79.00,270.00
             79.00,270.00 64.00,269.00 64.00,269.00
             64.00,269.00 2.00,269.00 2.00,269.00
             2.00,269.00 2.00,212.00 2.00,212.00
             2.00,212.00 1.00,195.00 1.00,195.00
             1.00,195.00 1.00,75.00 1.00,75.00
             1.00,75.00 0.00,60.00 0.00,60.00
             0.00,60.00 0.00,0.00 0.00,0.00
             0.00,0.00 335.00,0.00 335.00,0.00 Z" />
</svg>
